<svg xmlns="http://www.w3.org/2000/svg" viewBox="0 0 32 32" id="dental-care"><path d="M31.48145,23.01824a1.61625,1.61625,0,0,0-1.22119-.41895l-10.0957.8418a2.5909,2.5909,0,0,1-1.13672-.16992l-.05243-.021.01337-.00635a2.30105,2.30105,0,0,0-.62793-4.10937L9.974,16.61834A1.49952,1.49952,0,0,0,8.5,15.37566H.5a.49971.49971,0,0,0-.5.5v11a.49971.49971,0,0,0,.5.5h8a1.495,1.495,0,0,0,1.30023-.7663l8.0401,2.4118a5.47416,5.47416,0,0,0,3.31934-.0498l9.7417-3.24707a1.60642,1.60642,0,0,0,.58008-2.70605ZM6,26.37566H1v-10H6Zm3-.5a.50065.50065,0,0,1-.5.5H7v-10H8.5a.50065.50065,0,0,1,.5.5Zm21.58545-1.10059-9.74219,3.24707a4.48413,4.48413,0,0,1-2.71582.042L10,25.62566V17.6693l8.07373,2.42218a1.30134,1.30134,0,1,1-.85645,2.45508l-2.53174-1.0127a.4996.4996,0,1,0-.37109.92773l2.53174,1.0127,1.81055.72461a3.53618,3.53618,0,0,0,1.59033.23828l10.09619-.8418a.621.621,0,0,1,.46094.1582.60639.60639,0,0,1-.21875,1.02148ZM19.41064,10.14617a1.432,1.432,0,0,1-.01025.92969,7.50891,7.50891,0,0,0,.48486,5.83984l.31738.60156a1.11653,1.11653,0,0,0,.99316.59961c.01074,0,.02148,0,.03223-.001a1.11607,1.11607,0,0,0,.99072-.65527l1.58594-3.46a.66675.66675,0,0,1,1.17822,0l1.58594,3.46a1.1141,1.1141,0,0,0,.98975.65527,1.04054,1.04054,0,0,0,1.02588-.59863l.29785-.5625a7.61362,7.61362,0,0,0,.4917-5.918,1.41044,1.41044,0,0,1,.00293-.89062l1.00391-2.96973a3.35427,3.35427,0,0,0-4.12549-4.292l-1.46387.43262a1.42533,1.42533,0,0,1-.79395,0l-1.46582-.43262a3.35427,3.35427,0,0,0-4.12549,4.292Zm.47559-5.67578a2.31333,2.31333,0,0,1,2.36279-.627l1.4574.42981a2.551,2.551,0,0,0-.37732.84851.49975.49975,0,0,0,.38037.5957.5185.5185,0,0,0,.1084.01172.50059.50059,0,0,0,.48779-.39258,1.59372,1.59372,0,0,1,.88849-1.09625l1.34393-.39691a2.3543,2.3543,0,0,1,2.89551,3.0127L28.42969,9.82586a2.41167,2.41167,0,0,0-.00488,1.52539A6.61037,6.61037,0,0,1,27.998,16.488l-.29785.5625a.11615.11615,0,0,1-.10889.06641.1278.1278,0,0,1-.11328-.07227l-1.58594-3.46094a1.63186,1.63186,0,0,0-1.49854-.96094h-.00049a1.63348,1.63348,0,0,0-1.49756.96191l-1.58594,3.46a.118.118,0,0,1-.10937.07227.099.099,0,0,1-.11328-.06641L20.769,16.4489a6.52454,6.52454,0,0,1-.40869-5.09082,2.39574,2.39574,0,0,0-.00244-1.53223L19.35352,6.85613A2.31625,2.31625,0,0,1,19.88623,4.47039Z"></path></svg>