<svg xmlns="http://www.w3.org/2000/svg" width="128" height="128" fill="none" viewBox="0 0 128 128" id="facebook"><g filter="url(#filter0_d)"><path fill="#1877F2" d="M112 56C112 78.0914 94.0914 96 72 96C49.9086 96 32 78.0914 32 56C32 33.9086 49.9086 16 72 16C94.0914 16 112 33.9086 112 56Z" filter="url(#filter1_i)"></path><path fill="#fff" fill-opacity=".4" fill-rule="evenodd" d="M56 32C78.0937 32 96 49.9063 96 72C96 91.9688 81.375 108.516 62.2501 111.516V83.5625L71.5703 83.5625L71.5704 83.5625L73.3438 72H73.3437H62.2501V64.5C62.2501 61.7315 63.4344 59.0227 67.0591 58.3888C67.5769 58.2982 68.1446 58.25 68.7657 58.25C68.7657 58.25 68.7657 58.25 68.7658 58.25L73.8125 58.25L73.8126 58.25V48.4062C73.8126 48.4062 73.8126 48.4063 73.8125 48.4062C73.8125 48.4062 69.2343 47.625 64.8593 47.625C62.5362 47.625 60.418 47.9828 58.5505 48.6811C53.0704 50.7302 49.75 55.7115 49.75 63.1875V72H39.5938H39.5937V83.5625L39.5938 83.5625L49.75 83.5625V111.516C30.625 108.516 16 91.9688 16 72C16 49.9063 33.9063 32 56 32Z" clip-rule="evenodd" filter="url(#filter2_bii)"></path></g><defs><filter id="filter0_d" width="112" height="111.516" x="12" y="12" color-interpolation-filters="sRGB" filterUnits="userSpaceOnUse"><feFlood flood-opacity="0" result="BackgroundImageFix"></feFlood><feColorMatrix in="SourceAlpha" values="0 0 0 0 0 0 0 0 0 0 0 0 0 0 0 0 0 0 127 0"></feColorMatrix><feOffset dx="4" dy="4"></feOffset><feGaussianBlur stdDeviation="4"></feGaussianBlur><feColorMatrix values="0 0 0 0 0.0941176 0 0 0 0 0.466667 0 0 0 0 0.94902 0 0 0 0.4 0"></feColorMatrix><feBlend in2="BackgroundImageFix" result="effect1_dropShadow"></feBlend><feBlend in="SourceGraphic" in2="effect1_dropShadow" result="shape"></feBlend></filter><filter id="filter1_i" width="80" height="80" x="32" y="16" color-interpolation-filters="sRGB" filterUnits="userSpaceOnUse"><feFlood flood-opacity="0" result="BackgroundImageFix"></feFlood><feBlend in="SourceGraphic" in2="BackgroundImageFix" result="shape"></feBlend><feColorMatrix in="SourceAlpha" result="hardAlpha" values="0 0 0 0 0 0 0 0 0 0 0 0 0 0 0 0 0 0 127 0"></feColorMatrix><feOffset></feOffset><feGaussianBlur stdDeviation="4"></feGaussianBlur><feComposite in2="hardAlpha" k2="-1" k3="1" operator="arithmetic"></feComposite><feColorMatrix values="0 0 0 0 1 0 0 0 0 1 0 0 0 0 1 0 0 0 0.8 0"></feColorMatrix><feBlend in2="shape" result="effect1_innerShadow"></feBlend></filter><filter id="filter2_bii" width="88" height="87.516" x="12" y="28" color-interpolation-filters="sRGB" filterUnits="userSpaceOnUse"><feFlood flood-opacity="0" result="BackgroundImageFix"></feFlood><feGaussianBlur in="BackgroundImage" stdDeviation="2"></feGaussianBlur><feComposite in2="SourceAlpha" operator="in" result="effect1_backgroundBlur"></feComposite><feBlend in="SourceGraphic" in2="effect1_backgroundBlur" result="shape"></feBlend><feColorMatrix in="SourceAlpha" result="hardAlpha" values="0 0 0 0 0 0 0 0 0 0 0 0 0 0 0 0 0 0 127 0"></feColorMatrix><feOffset></feOffset><feGaussianBlur stdDeviation="2"></feGaussianBlur><feComposite in2="hardAlpha" k2="-1" k3="1" operator="arithmetic"></feComposite><feColorMatrix values="0 0 0 0 1 0 0 0 0 1 0 0 0 0 1 0 0 0 1 0"></feColorMatrix><feBlend in2="shape" result="effect2_innerShadow"></feBlend><feColorMatrix in="SourceAlpha" result="hardAlpha" values="0 0 0 0 0 0 0 0 0 0 0 0 0 0 0 0 0 0 127 0"></feColorMatrix><feOffset dy="4"></feOffset><feGaussianBlur stdDeviation="4"></feGaussianBlur><feComposite in2="hardAlpha" k2="-1" k3="1" operator="arithmetic"></feComposite><feColorMatrix values="0 0 0 0 1 0 0 0 0 1 0 0 0 0 1 0 0 0 1 0"></feColorMatrix><feBlend in2="effect2_innerShadow" result="effect3_innerShadow"></feBlend></filter></defs></svg>