<svg xmlns="http://www.w3.org/2000/svg" viewBox="0 0 32 32" id="healthy-teeth"><path d="M31.9316,13.01041l-.0332-.15723A12.933,12.933,0,0,0,30.70211,9.547a12.79154,12.79154,0,0,0-2.02637-2.8335,10.02144,10.02144,0,0,0-1.14844-.769,10.80256,10.80256,0,0,0-1.51172-.709,1.39388,1.39388,0,0,0-1.70605.21875,2.37072,2.37072,0,0,0-.91895,2.45605c.20117.55371.85352,1.26758,1.55371,1.15527a.99441.99441,0,0,0,.459-.19043L25.497,8.8361a.3278.3278,0,0,1,.13672.02539,1.83843,1.83843,0,0,0,.92871-.0127.4835.4835,0,0,1,.27539.19043.55773.55773,0,0,1,.08691.436V9.47477a.49094.49094,0,0,0-.02441.15479v1.56982a2.66561,2.66561,0,0,0-.86816-.00342,2.69667,2.69667,0,0,0-1.23535.53662,3.09573,3.09573,0,0,0-1.00739-.25372,4.17512,4.17512,0,0,0-5.352-3.85028l-1.88574.55615a1.96048,1.96048,0,0,1-1.10254,0l-1.88672-.55615a4.17508,4.17508,0,0,0-5.352,3.851,3.10239,3.10239,0,0,0-1.00739.253A2.69667,2.69667,0,0,0,5.96773,11.196a2.62511,2.62511,0,0,0-.86816.00342V9.62955a.66287.66287,0,0,0-.02148-.145.56468.56468,0,0,1,.08984-.45312.45759.45759,0,0,1,.26172-.17871,1.97185,1.97185,0,0,0,.93652.00879.33266.33266,0,0,1,.13672-.02539c.00684.001.08594.03857.09375.03906a.97839.97839,0,0,0,.44727.18848c.71289.11475,1.36426-.6001,1.56543-1.15186a2.37009,2.37009,0,0,0-.916-2.45508,1.44951,1.44951,0,0,0-1.78223-.19385,10.57293,10.57293,0,0,0-1.43945.68262,9.47293,9.47293,0,0,0-1.207.82227,12.926,12.926,0,0,0-3.166,6.09619l-.03027.14648a1.38887,1.38887,0,0,0,.21387,1.28271,7.58069,7.58069,0,0,0,1.62988,1.43506,9.41454,9.41454,0,0,0,3.457,1.49512A4.2951,4.2951,0,0,0,7.038,17.17545a1.574,1.574,0,0,1,.6543.09424,3.70332,3.70332,0,0,0,.625.12793c.20117.01758.41309.03271.626.03271a2.70716,2.70716,0,0,0,.85773-.14191,2.04663,2.04663,0,0,1-.09308.7923,9.53487,9.53487,0,0,0,.61426,7.40771l.40918.77393a1.30331,1.30331,0,0,0,2.33691-.06543l2.042-4.45459a1.0062,1.0062,0,0,1,1.7793,0l2.042,4.4541a1.29346,1.29346,0,0,0,1.14648.75977l.03809.00049a1.29677,1.29677,0,0,0,1.15234-.69482l.38281-.7251a9.65684,9.65684,0,0,0,.624-7.50488,1.952,1.952,0,0,1-.07764-.744,2.71012,2.71012,0,0,0,.85986.14246c.21191,0,.42383-.01514.625-.03271a3.70332,3.70332,0,0,0,.625-.12793,1.61052,1.61052,0,0,1,.66113-.09277,4.33594,4.33594,0,0,0,1.6875.0415,9.40009,9.40009,0,0,0,3.43359-1.49121,7.5599,7.5599,0,0,0,1.62891-1.43652A1.38546,1.38546,0,0,0,31.9316,13.01041ZM8.40328,16.40152a2.77128,2.77128,0,0,1-.45312-.09814,2.29822,2.29822,0,0,0-1.1416-.10107,3.31487,3.31487,0,0,1-1.252.03857,8.38111,8.38111,0,0,1-3.06641-1.3291,6.72593,6.72593,0,0,1-1.41113-1.22363c-.10156-.13379-.09863-.16553-.0332-.46631l.03223-.15576a11.95165,11.95165,0,0,1,1.10449-3.0542A12.17157,12.17157,0,0,1,3.93551,7.50553a8.81667,8.81667,0,0,1,1.03125-.69092A9.667,9.667,0,0,1,6.332,6.1735c.46973-.17285.46875-.17236.69824.03174.42871.37744.793.94482.63965,1.36328a.832.832,0,0,1-.50488.4834,1.039,1.039,0,0,0-.54883-.209,1.28578,1.28578,0,0,0-.52637.05762.63523.63523,0,0,1-.28516.0249.926.926,0,0,0-.42187-.07471,1.43071,1.43071,0,0,0-1.00586.56934,1.53741,1.53741,0,0,0-.27734,1.269v2.19043a.50066.50066,0,0,0,.23633.4248.50658.50658,0,0,0,.48633.02295,1.67067,1.67067,0,0,1,.98926-.144,1.69238,1.69238,0,0,1,.95117.49609.50107.50107,0,0,0,.63086.085,2.121,2.121,0,0,1,.90393-.28412,4.368,4.368,0,0,0,.13025.49017l1.13483,3.35608A2.6926,2.6926,0,0,1,8.40328,16.40152Zm12.92285,1.94434A8.65064,8.65064,0,0,1,20.76656,25.07l-.38281.72461a.3033.3033,0,0,1-.54395-.01416v-.00049l-2.042-4.45459a1.97795,1.97795,0,0,0-3.5957,0l-2.042,4.45508a.2963.2963,0,0,1-.26758.17627.31053.31053,0,0,1-.27637-.16211l-.40918-.77344a8.54934,8.54934,0,0,1-.53613-6.6665,2.92694,2.92694,0,0,0-.00293-1.88135L9.375,12.65006a3.175,3.175,0,0,1,3.9043-4.0625l1.8877.55615c.05884.01727.11914.02539.17865.03894a3.1665,3.1665,0,0,0-.57611,1.2179.50043.50043,0,0,0,.37988.59668.52555.52555,0,0,0,.1084.01172.50075.50075,0,0,0,.48828-.3916,2.20339,2.20339,0,0,1,1.22876-1.51514l1.74585-.51465a3.175,3.175,0,0,1,3.9043,4.0625l-1.293,3.82275A2.96827,2.96827,0,0,0,21.32613,18.34586Zm9.59668-4.66016a6.73127,6.73127,0,0,1-1.41113,1.2251,8.36758,8.36758,0,0,1-3.043,1.3252,3.3056,3.3056,0,0,1-1.27051-.03223,2.2672,2.2672,0,0,0-1.14844.09961,2.77128,2.77128,0,0,1-.45312.09814,2.69344,2.69344,0,0,1-1.15936-.07526l1.13495-3.3559a4.37,4.37,0,0,0,.13025-.4903,2.109,2.109,0,0,1,.90393.28424.4989.4989,0,0,0,.63086-.085,1.69238,1.69238,0,0,1,.95117-.49609,1.66135,1.66135,0,0,1,.98926.144.50008.50008,0,0,0,.72266-.44775V9.68912a1.5283,1.5283,0,0,0-.27148-1.26123,1.43784,1.43784,0,0,0-1.01367-.57764,1.20477,1.20477,0,0,0-.48535.08936.7032.7032,0,0,1-.21973-.03906,1.24723,1.24723,0,0,0-.50391-.06006,1.0443,1.0443,0,0,0-.59375.23438A.908.908,0,0,1,24.33,7.56705c-.15332-.417.21094-.98437.64258-1.36426.22656-.20215.22559-.2041.75879-.00635a9.64224,9.64224,0,0,1,1.30078.61719,9.884,9.884,0,0,1,.97266.6377,11.89724,11.89724,0,0,1,2.91406,5.604l.03516.1665C31.01949,13.52262,31.02242,13.55436,30.92281,13.6857Z"></path></svg>