<svg xmlns="http://www.w3.org/2000/svg" viewBox="0 0 64 64" id="teeth-drilling"><path d="M8.8 51.6c-.6.6-1.1 1.2-1.7 1.8L7 53.5c-.3.2-.3.7 0 .9.2.3.6.2.9 0L8 54.3c.2-.2.5-.4.7-.6.4-.4.7-.8 1.1-1.2C9.9 52.4 10 52.2 10 52s-.1-.4-.2-.5c-.1-.1-.3-.2-.5-.2C9.1 51.5 9 51.5 8.8 51.6L8.8 51.6 8.8 51.6zM7.1 53.5L7.1 53.5 7.1 53.5 7.1 53.5 7.1 53.5zM8 54.4L8 54.4C7.9 54.4 8 54.4 8 54.4L8 54.4 8 54.4zM7.7 48c-.4.3-.7.7-1.1 1-.1.1-.2.2-.3.3-.1.1-.1.1-.2.2-.3.2-.3.6 0 .9.2.3.6.3.9 0l0 0 0 0c0 0 0 0 .1 0 0 0 .1 0 .1-.1l0 0c.2-.1.4-.3.6-.4.3-.3.6-.6.9-1 .2-.3.3-.6 0-.9-.1-.1-.3-.2-.5-.2C7.9 47.8 7.8 47.9 7.7 48L7.7 48 7.7 48zM7 50.3C7 50.3 7 50.4 7 50.3L7 50.3 7 50.3 7 50.3 7 50.3zM8.5 43c-.5.5-1 1-1.5 1.4-.2.2-.5.5-.7.7-.1.1-.2.2-.3.3-.2.2-.3.6 0 .9.2.2.7.3.9 0 .1-.1.2-.2.3-.2.2-.2.5-.4.7-.6.5-.5 1-1.1 1.6-1.6.2-.3.3-.7 0-.9-.1-.1-.3-.2-.5-.2C8.7 42.8 8.6 42.8 8.5 43L8.5 43 8.5 43zM7.5 39.3c-.2 0-.3.1-.4.3-.2.3-.5.6-.7.9C6.2 40.7 6 41 5.8 41.2s-.3.4-.6.6l0 0C5.1 41.9 5 41.9 5 42.1c-.1.2 0 .3 0 .5.2.3.6.4.9.3.4-.2.7-.6 1-.9.5-.5.9-1.1 1.4-1.6.1-.1.1-.4.1-.5 0-.2-.1-.3-.3-.4-.1-.1-.2-.1-.4-.1C7.6 39.2 7.5 39.3 7.5 39.3L7.5 39.3 7.5 39.3zM5.3 41.7L5.3 41.7 5.3 41.7 5.3 41.7 5.3 41.7 5.3 41.7zM5.8 35.9c-.3.3-.6.7-1 1-.1.2-.3.3-.5.5-.1.1-.2.3-.2.4 0 .2 0 .3.2.5s.7.3.9 0c.1-.2.3-.3.5-.5.3-.3.7-.7 1-1 .1-.1.2-.3.2-.5s0-.3-.2-.5c-.1-.1-.3-.2-.5-.2C6.1 35.8 5.9 35.8 5.8 35.9L5.8 35.9 5.8 35.9zM4.9 32.5c-.5.6-1.1 1.2-1.7 1.7-.3.2-.3.7 0 .9.2.3.6.2.9 0 .2-.2.4-.3.6-.5.4-.4.8-.8 1.1-1.2C5.9 33.3 6 33.2 6 33s-.1-.3-.2-.5c-.1-.1-.3-.2-.5-.2C5.2 32.3 5 32.4 4.9 32.5L4.9 32.5 4.9 32.5zM3.4 29.6c-.3.3-.5.5-.8.8-.1.1-.3.3-.4.4-.2.3-.1.7.2.9.3.2.6.1.8-.1l0 0 0 0 0 0c.4-.3.7-.7 1-1 .2-.2.3-.6 0-.9-.1-.1-.3-.2-.5-.2C3.7 29.4 3.5 29.5 3.4 29.6L3.4 29.6 3.4 29.6zM3.3 31.5L3.3 31.5 3.3 31.5 3.3 31.5 3.3 31.5 3.3 31.5zM2.2 26.5c-.2.2-.4.4-.6.6-.3.2-.2.7 0 .9.1.1.3.2.4.2.2 0 .3-.1.4-.2.2-.2.4-.4.6-.6.2-.2.3-.6 0-.9-.1-.1-.3-.2-.5-.2C2.4 26.3 2.3 26.4 2.2 26.5L2.2 26.5 2.2 26.5zM1.7 23.1c-.2.2-.4.3-.6.5 0 0 0 0-.1 0-.3.2-.4.6-.3.9.2.3.6.4.9.3.1 0 .2-.1.2-.2.2-.2.5-.4.7-.5.3-.2.3-.7 0-.9 0-.1-.2-.2-.3-.2l0 0C2 23 1.8 23 1.7 23.1L1.7 23.1 1.7 23.1zM1.2 23.6C1.1 23.6 1.1 23.6 1.2 23.6 1.1 23.6 1.1 23.6 1.2 23.6L1.2 23.6 1.2 23.6zM29.6 27.4L29.6 27.4c-.2.4-.4.9-.6 1.3-.2.6-.4 1.2-.7 1.8-.4 1.1-.8 2.2-1 3.3-.1.6-.3 1.3-.4 1.9-.1.7-.2 1.4-.2 2.1-.1.7-.1 1.5-.1 2.2 0 .8-.1 1.5 0 2.3 0 .3.3.7.6.7.4 0 .7-.3.7-.6 0-.6.1-1.2.1-1.8 0-.5.1-1.1.1-1.6.1-1.1.1-2.2.3-3.3.2-1.4.6-2.8 1.1-4.2.2-.7.5-1.4.8-2.1.1-.4.3-.7.4-1.1 0-.1.1-.2.1-.3 0-.1 0-.2.1-.2.1-.3-.1-.7-.4-.8-.1 0-.1 0-.2 0C30 27 29.7 27.1 29.6 27.4L29.6 27.4 29.6 27.4zM29.6 27.5L29.6 27.5 29.6 27.5 29.6 27.5 29.6 27.5zM44.3 24c-.2.2-.5.4-.7.7-.1.1-.2.2-.4.3-.3.2-.2.7 0 .9.1.1.3.2.4.2.2 0 .3-.1.5-.2.4-.3.8-.6 1.1-1 .3-.2.3-.7 0-1-.1-.1-.3-.2-.5-.2C44.6 23.8 44.4 23.9 44.3 24L44.3 24 44.3 24zM45.3 27c-.3.3-.6.6-.9.9-.1.1-.3.3-.4.4-.3.2-.3.6 0 .9.2.3.6.3.9 0l.1-.1c.1-.1.3-.2.4-.3.3-.3.6-.5.9-.8.3-.2.3-.7 0-1-.1-.1-.3-.2-.5-.2S45.5 26.9 45.3 27L45.3 27 45.3 27zM44.9 29.2L44.9 29.2 44.9 29.2 44.9 29.2 44.9 29.2zM47.4 28.8c-.4.4-.8.8-1.3 1.2-.2.2-.5.5-.7.7-.1.1-.2.3-.2.4 0 .2.1.3.2.5.1.1.3.2.4.2.2 0 .3-.1.5-.2.1-.1.2-.1.2-.2.2-.2.4-.3.5-.5.4-.4.8-.8 1.3-1.2.3-.2.3-.7 0-.9-.1-.1-.3-.2-.5-.2C47.6 28.6 47.5 28.7 47.4 28.8L47.4 28.8 47.4 28.8zM49.5 30.9c-.5.4-.9.8-1.4 1.3-.2.2-.4.4-.6.6-.1.1-.2.2-.2.3-.3.2-.3.7 0 .9.2.3.6.2.9 0 .3-.2.5-.5.7-.7.5-.5 1-1 1.5-1.4.3-.2.3-.7 0-.9-.1-.1-.3-.2-.5-.2C49.8 30.7 49.6 30.7 49.5 30.9L49.5 30.9 49.5 30.9zM51.4 35.6c-.4.4-.8.8-1.1 1.2l-.1.1c-.2.2-.3.6 0 .9.2.2.7.3.9 0 .1-.1.2-.2.3-.3.3-.3.6-.6.9-1 .2-.3.3-.6 0-.9-.1-.1-.3-.2-.5-.2C51.6 35.5 51.5 35.5 51.4 35.6L51.4 35.6 51.4 35.6zM50.3 36.8C50.3 36.8 50.2 36.8 50.3 36.8 50.2 36.8 50.3 36.8 50.3 36.8L50.3 36.8 50.3 36.8zM49.8 33.7c-.3.3-.6.6-1 .9-.2.1-.3.3-.5.4 0 0 0 0 .1 0-.1.1-.2.2-.2.3 0 .2 0 .3 0 .5.1.3.6.5.9.3.1-.1.3-.2.4-.3.1-.1.3-.2.4-.4.3-.2.5-.5.8-.7s.3-.6 0-.9c-.1-.1-.3-.2-.5-.2C50.1 33.5 49.9 33.6 49.8 33.7L49.8 33.7 49.8 33.7zM48.5 34.9L48.5 34.9 48.5 34.9 48.5 34.9 48.5 34.9zM53.6 38.1c-.3.3-.6.7-.9 1-.2.2-.4.4-.6.7-.1.1-.2.3-.2.4 0 .2.1.3.2.5.1.1.3.2.4.2.1 0 .4 0 .5-.2.2-.2.3-.4.5-.6.3-.4.7-.8 1-1.1.1-.1.2-.3.2-.4 0-.2-.1-.3-.2-.5-.1-.1-.3-.2-.5-.2S53.7 38 53.6 38.1L53.6 38.1 53.6 38.1zM55.5 40.8c-.3.3-.6.5-.9.8-.1.1-.1.1-.2.2l-.1.1c-.2.3-.3.6 0 .9.2.2.7.3.9 0l0 0c.5-.3.9-.7 1.3-1.1.3-.3.3-.7 0-1-.1-.1-.3-.2-.5-.2C55.8 40.6 55.6 40.7 55.5 40.8L55.5 40.8 55.5 40.8zM55.2 42.8L55.2 42.8 55.2 42.8 55.2 42.8 55.2 42.8zM57.9 42.7c-.1.1-.3.3-.4.5-.1.1-.1.1-.2.2-.1.1-.2.3-.2.4 0 .2.1.3.2.5.2.2.7.3.9 0l.1-.1c.2-.2.3-.3.5-.5.1-.1.2-.3.2-.5s-.1-.3-.2-.5c-.1-.1-.3-.2-.5-.2C58.2 42.5 58 42.6 57.9 42.7L57.9 42.7 57.9 42.7zM47.2 21.2c-.3 0-.6.1-.8.2-.1 0-.2.1-.3.2-.1 0-.1.1-.2.1-.3.2-.4.5-.3.9.2.3.6.4.9.3 0 0 0 0 .1 0 .3-.1.6-.2.9-.2.2 0 .4 0 .6 0 .2 0 .4.1.6.2.3.2.6.4.9.6.6.6 1.2 1.2 1.7 1.9l0 0c.9 1.3 1.6 2.6 2.3 3.9.4.7.8 1.4 1.2 2 .5.8 1.2 1.6 1.8 2.4.2.3.7.2.9 0 .1-.1.2-.3.2-.4 0-.2-.1-.3-.2-.5-.1-.2-.2-.3-.4-.5 0 0 0 .1.1.1-.9-1.2-1.6-2.5-2.3-3.8-.7-1.2-1.3-2.5-2.1-3.7-.4-.7-.9-1.3-1.4-1.9s-1.1-1.1-1.8-1.5c-.4-.2-.8-.4-1.2-.4-.2 0-.3 0-.5 0C47.6 21.2 47.4 21.2 47.2 21.2L47.2 21.2 47.2 21.2zM48.6 22.8L48.6 22.8C48.7 22.9 48.6 22.8 48.6 22.8L48.6 22.8 48.6 22.8zM51.2 25.4L51.2 25.4 51.2 25.4 51.2 25.4 51.2 25.4zM40.1 3.3c-.1 0-.2 0-.2.1-.1.1-.2.1-.4.2-.4.3-.8.6-1.1 1C38 5 37.5 5.3 37.1 5.7l0 0C36.5 6 36 6.5 35.5 7s-1.1 1-1.7 1.5c-.5.3-.9.7-1.4.9-.3.2-.6.3-.9.6-.1.1-.3.3-.4.5C31 10.6 31 10.8 30.9 11c-.2.5-.3.9-.5 1.4-.2.7-.4 1.3-.6 2-.1.3-.2.6-.3 1-.1.4-.2.8-.3 1.2 0 .3-.1.5 0 .8.1.2.2.5.4.6.3.3.7.4 1.1.5.5.1 1 .2 1.6.3.6.1 1.1.3 1.7.4.7.2 1.5.4 2.2.2.4-.1.7-.4.9-.6s.4-.4.7-.6c.9-.8 1.7-1.5 2.6-2.2 1-.8 1.9-1.7 2.8-2.5.4-.4.8-.8 1.3-1.2.5-.5 1-1 1.5-1.5.1-.1.1-.2.2-.2.1-.1.1-.3.2-.5 0-.2 0-.3.1-.5 0-.2 0-.3-.1-.5-.1-.5-.6-.8-.9-1.2-.5-.5-1-1-1.4-1.5-.5-.5-1-1-1.5-1.5-.2-.2-.5-.4-.7-.6-.1-.1-.2-.2-.4-.3-.1-.1-.1-.3-.2-.4-.2-.2-.5-.3-.8-.3C40.2 3.3 40.2 3.3 40.1 3.3L40.1 3.3 40.1 3.3zM36.6 8.7c.5-.4 1.1-.7 1.6-1.1s.9-.8 1.4-1.2c.3-.3.7-.5 1-.8.1.1.1.1.2.2.4.5.7.9 1.1 1.3.7.8 1.4 1.6 2.1 2.4l.1.1c-.1.2-.2.3-.3.5-1.2 1.4-2.5 2.7-4 3.8 0 0 .1 0 .1-.1-.8.6-1.6 1.2-2.4 1.8-.3.2-.7.5-1 .8s-.7.5-1.1.7c-.1 0-.1 0-.2 0-.2 0-.4 0-.6 0-.6-.1-1.2-.3-1.8-.4-.5-.1-.9-.3-1.4-.4.1-.6.3-1.2.6-1.8.2-.6.4-1.2.7-1.8v.1c.2-.4.4-.9.6-1.2.3-.3.6-.6.9-.9.4-.3.8-.7 1.2-1l0 0c0 0 0 0 .1 0l.1-.1-.1.1C35.7 9.3 36.2 9 36.6 8.7L36.6 8.7 36.6 8.7zM44.1 9.3v.1C44.1 9.4 44.1 9.4 44.1 9.3L44.1 9.3 44.1 9.3zM44.1 9.6L44.1 9.6c0 .1 0 .1-.1.2C44 9.7 44 9.7 44.1 9.6L44.1 9.6 44.1 9.6zM31.4 16.1c0 .1 0 .1 0 .2l0 0C31.4 16.2 31.4 16.2 31.4 16.1L31.4 16.1 31.4 16.1zM31 16.1L31 16.1 31 16.1 31 16.1 31 16.1zM30.9 16.1C31 16.1 31 16.2 30.9 16.1 31 16.2 31 16.1 30.9 16.1L30.9 16.1 30.9 16.1zM35.1 17.2C35 17.2 35 17.2 35.1 17.2 35 17.2 35 17.2 35.1 17.2L35.1 17.2 35.1 17.2zM39.6 14C39.7 14 39.7 13.9 39.6 14 39.7 13.9 39.7 14 39.6 14L39.6 14 39.6 14zM35.2 9.7L35.2 9.7 35.2 9.7C35.3 9.7 35.2 9.7 35.2 9.7L35.2 9.7 35.2 9.7z"></path><path d="M28.8 16.9h-.1c0 0 0 0-.1 0-.2 0-.3 0-.5.1-.2 0-.4.1-.5.2-.2.1-.3.2-.4.3-.7.5-1.3 1-2 1.5-.3.2-.5.4-.8.6-.2.2-.4.3-.5.6-.1.3 0 .6.1.8.1.2.4.4.6.5.4.1.7 0 1-.3.6-.5 1.2-1.1 1.8-1.6.4-.3.8-.6 1.2-.9.2-.1.3-.3.5-.4.1-.1.1-.2.2-.3.2-.1.3-.4.3-.7-.1-.3-.3-.5-.6-.5C29 16.9 28.9 16.9 28.8 16.9L28.8 16.9 28.8 16.9zM27.4 19.7C27.4 19.7 27.4 19.8 27.4 19.7 27.4 19.8 27.4 19.7 27.4 19.7L27.4 19.7 27.4 19.7zM45.7 16.8c-.7.1-1.4.4-1.9.9-.3.2-.5.5-.7.7-.1.1-.2.2-.2.3-.2.2-.3.5-.4.7-.3.6-.4 1.3-.5 2-.1.6-.1 1.3-.1 1.9 0 1.3.3 2.6.6 3.9.3 1.1.8 2.2 1.3 3.3.5 1.1 1.2 2 1.8 3 .7 1 1.4 1.9 2.1 2.8.7.9 1.5 1.8 2.2 2.7 1.7 2 3.6 3.7 5.7 5.3.5.4 1 .7 1.5 1 .8.4 1.8.7 2.7.7.3 0 .6-.1.9-.2.3-.1.6-.2.8-.4.2-.1.5-.4.7-.6.1-.1.1-.2.2-.3.1-.2.2-.3.3-.5.2-.3.3-.6.4-.9.1-.1.1-.3.1-.4.1-.3.2-.6.2-.9.1-.5.2-1.1.2-1.6 0-.6 0-1.1-.1-1.7-.1-1-.4-2-.7-3-.3-.9-.6-1.9-1.1-2.7-.5-1-1.2-1.9-1.9-2.8-.1-.2-.2-.3-.4-.4-.1-.1-.1-.3-.2-.4-.3-.6-.7-1.1-1-1.7-.6-1-1.3-1.9-1.9-2.9-.6-1-1.4-1.9-2.1-2.8-.3-.4-.7-.8-1-1.2-.4-.5-.9-1-1.4-1.5-.4-.4-.9-.8-1.4-1.1-.5-.4-1.1-.7-1.7-1-.5-.2-1.1-.3-1.7-.4-.3 0-.5-.1-.8-.1C46.2 16.8 45.9 16.8 45.7 16.8L45.7 16.8 45.7 16.8zM46.8 19c.5.1.9.2 1.3.3.6.3 1.2.7 1.8 1.1.8.7 1.6 1.4 2.3 2.2.6.7 1.2 1.4 1.8 2.1-.1-.1-.1-.1-.2-.2.9 1.2 1.7 2.4 2.6 3.6.4.6.8 1.2 1.1 1.8.2.3.4.6.6.9 0 .2 0 .3.1.5.5.7 1 1.4 1.4 2.1.3.6.7 1.3 1 2 .5 1.3.9 2.7 1.1 4.1 0 .3 0 .6 0 .9 0 .4 0 .7-.1 1.1 0 .2-.1.5-.1.7-.1.2-.1.4-.2.6-.1.3-.3.6-.5.8-.1.1-.2.2-.3.3s-.2.1-.3.2c-.2.1-.3.1-.5.1-.1 0-.2 0-.3 0-.3-.1-.6-.2-1-.3-1.1-.5-2-1.1-3-1.9-1.4-1.1-2.7-2.4-3.9-3.7-1.1-1.2-2.1-2.4-3-3.6l0 0 0 0-.1-.1c0 0 0 0 .1.1-.7-.9-1.3-1.8-2-2.8C45.9 31 45.4 30 44.9 29c-.2-.5-.4-1.1-.6-1.7-.2-.7-.3-1.4-.5-2.1 0 .1 0 .2 0 .2-.1-.6-.1-1.2-.2-1.8 0-.5 0-1.1.1-1.6 0-.1 0-.2 0-.3.1-.4.2-.8.4-1.2.1-.2.2-.4.3-.6l.1-.1c.1-.1.3-.3.4-.4.1-.1.3-.2.4-.2.1 0 .2-.1.4-.1C46.2 19 46.5 19 46.8 19L46.8 19 46.8 19zM45.2 19.2c-.1 0-.1.1-.2.1C45.1 19.3 45.2 19.2 45.2 19.2L45.2 19.2 45.2 19.2zM60.5 35.1c0 .1.1.1.1.2C60.5 35.2 60.5 35.2 60.5 35.1L60.5 35.1 60.5 35.1zM61.3 42.7L61.3 42.7C61.3 42.8 61.3 42.8 61.3 42.7L61.3 42.7 61.3 42.7zM60.8 43.6c-.1.1-.1.1-.2.2C60.6 43.7 60.7 43.7 60.8 43.6L60.8 43.6 60.8 43.6zM60.5 43.9c-.1 0-.1 0-.2.1C60.4 43.9 60.4 43.9 60.5 43.9L60.5 43.9 60.5 43.9zM48.5 34.6L48.5 34.6 48.5 34.6C48.5 34.5 48.5 34.6 48.5 34.6L48.5 34.6 48.5 34.6z"></path><path d="M40.1 13.4c-.2.1-.4.4-.5.6-.1.2 0 .6.1.8.5.7 1 1.5 1.5 2.3.3.4.6.9.9 1.3.2.2.3.4.5.6.1.1.2.2.3.3 0 0 0 .1.1.1.2.3.6.4.9.2.3-.2.4-.6.2-.9L44 18.6c0-.1-.1-.2-.1-.4 0-.1-.1-.2-.1-.3-.1-.2-.1-.3-.2-.5-.2-.5-.5-1-.8-1.4-.2-.4-.4-.8-.7-1.2-.2-.4-.5-.8-.7-1.2-.2-.3-.5-.5-.9-.5C40.5 13.3 40.3 13.3 40.1 13.4L40.1 13.4 40.1 13.4zM5.2 15.2c-1.1.5-2 1.3-2.8 2.2-.4.5-.7 1.1-1 1.7S.9 20.4.6 21C.2 22.2 0 23.4 0 24.7c0 .7 0 1.3.1 2s.2 1.4.3 2.1c.2 1.1.4 2.3.7 3.4.2.6.3 1.2.5 1.8s.5 1.3.7 1.9C2.5 36.4 2.8 37 3 37.5l0 0c0 0 0 0 0 .1s.1.1.1.2v-.1c.2.5.5 1.1.6 1.7C3.9 40 4 40.7 4.1 41.3l0 0 0 0c0 .1 0 .2 0 .2 0-.1 0-.1 0-.2.1 1 .2 2 .3 3 .1 1.2.1 2.3.2 3.5.1 1 .2 2.1.4 3.1C5.2 52 5.4 53 5.6 54.1c.1.2.1.5.2.7.1.5.3.9.6 1.4.1.2.2.4.4.5C6.9 56.8 7 56.9 7.1 57s.3.2.5.3.6.2.8.2c.1 0 .2 0 .3 0 .2 0 .4-.1.6-.1.2-.1.4-.2.6-.3.1-.1.2-.2.4-.2.1-.1.3-.2.4-.3.2-.2.3-.4.5-.6.2-.2.3-.4.5-.7.4-.6.7-1.2.9-1.9.4-1 .7-2 1-3s.5-1.9.9-2.9c.1-.3.3-.7.5-1 .2-.4.5-.8.8-1.2.3-.3.6-.6.9-.9.2-.1.4-.3.6-.4.1-.1.3-.1.5-.1.1 0 .2 0 .3 0 .1 0 .2.1.3.1.2.1.3.2.5.3-.1 0-.1-.1-.2-.1.2.2.4.4.6.6.2.3.5.7.7 1.1.2.3.3.7.5 1 .2.5.4 1 .6 1.6.2.7.4 1.4.6 2 .3 1.3.6 2.6.9 3.9.1.6.3 1.1.5 1.7.1.3.2.5.3.8.1.3.4.7.6 1 .1.2.3.3.5.5.2.1.3.2.5.3.1 0 .2.1.3.1.2 0 .4 0 .6.1.1 0 .2 0 .3 0 .2 0 .5-.1.7-.2.6-.2 1.1-.6 1.5-1.1.6-.6 1-1.4 1.4-2.2 1.2-2.4 1.6-5.1 1.8-7.7.2-2.5.4-5.1.6-7.6.1-.8.2-1.6.3-2.4v.1c0-.1 0-.1 0-.2v-.1c0 0 0 0 0 .1.1-.7.2-1.4.4-2.1.2-.8.5-1.5.8-2.3v.1c0 0 0-.1.1-.1v-.1.1c.2-.5.4-1 .7-1.5.3-.6.6-1.2.9-1.8.6-1.3.9-2.7 1.1-4.2 0-.6 0-1.2 0-1.8-.1-.7-.2-1.3-.4-1.9-.1-.3-.2-.6-.4-.9s-.5-.6-.8-.9c-.5-.5-1.1-.8-1.7-1.2-.5-.3-1.2-.1-1.5.4s-.1 1.2.4 1.5c.4.2.8.4 1.1.7.2.1.3.3.5.4.1.2.2.3.3.5.2.5.3 1 .4 1.4.1.8 0 1.7-.1 2.5-.1.4-.1.7-.2 1.1-.1.4-.2.7-.4 1.1-.3.7-.7 1.5-1 2.2-.4.9-.7 1.7-1 2.6-.5 1.7-.9 3.4-1 5.1-.1 1.9-.3 3.7-.4 5.6-.1 2-.2 3.9-.5 5.9 0-.1 0-.2 0-.3-.1.7-.2 1.5-.4 2.2-.2.7-.4 1.4-.7 2.1 0-.1.1-.1.1-.2-.1.3-.3.7-.5 1-.2.4-.4.7-.6 1-.2.2-.4.4-.6.6-.1.1-.2.1-.3.2-.1 0-.1 0-.2.1h-.1-.1c-.1-.1-.3-.2-.4-.3l.1.1 0 0 0 0 .1.1c-.1-.1-.1-.1-.2-.2-.2-.3-.4-.6-.6-1-.1-.1-.1-.3-.2-.5-.3-.9-.6-1.7-.9-2.6-.3-1.1-.5-2.1-.8-3.2-.3-1-.6-2-.9-2.9-.2-.5-.4-1-.6-1.5-.2-.3-.3-.6-.5-1-.1-.2-.3-.4-.5-.6-.1-.1-.2-.2-.3-.4-.2-.2-.3-.3-.5-.4-.2-.1-.4-.2-.6-.3-.1 0-.2-.1-.4-.1-.2 0-.4-.1-.6-.1s-.4 0-.6.1c-.1 0-.2.1-.4.1-.2.1-.4.2-.6.3s-.4.2-.6.4c-.3.2-.5.4-.7.7-.3.3-.6.7-.8 1.1-.3.4-.5.9-.7 1.3-.2.5-.4 1-.6 1.5-.3.9-.6 1.8-.8 2.7-.1.4-.2.9-.4 1.3-.2.6-.4 1.1-.6 1.6-.3.6-.6 1.2-1 1.7-.2.2-.4.4-.6.6-.1.1-.3.2-.4.2-.2.1-.3.1-.5.1.1 0 .1 0 .2 0l0 0 0 0c0 0 0 0 .1 0H9.5c0 0 0 0-.1 0l-.1-.1C9.2 55.3 9 55.1 8.9 55c0 .1.1.1.2.2C9 55 8.8 54.8 8.7 54.6c-.1-.3-.2-.6-.3-.9-.1-.4-.2-.8-.3-1.2-.2-.7-.3-1.5-.4-2.2 0 .1 0 .2 0 .2-.2-1.3-.3-2.7-.4-4-.1-1.4-.1-2.8-.1-4.2 0-.7 0-1.4-.2-2.1-.1-.6-.3-1.2-.5-1.7-.4-1.2-1-2.3-1.5-3.4 0 .1.1.2.1.2-.3-.7-.6-1.4-.8-2-.2-.7-.4-1.3-.6-2-.4-1.4-.7-2.9-.9-4.4-.1-.5-.1-1.1-.1-1.6s0-1.1.1-1.6C2 23 2.1 22.5 2.2 22c.2-.6.3-1.1.6-1.6.1-.3.3-.5.4-.8.2-.3.4-.6.6-.9.3-.4.7-.7 1-1.1.3-.2.6-.4 1-.6.1 0 .2 0 .4-.1s.5-.1.7-.1c-.1 0-.2 0-.3 0 .4 0 .7 0 1.1 0C8.4 17 9 17.2 9.6 17.4c1 .5 2 1.1 3 1.6.5.3 1.1.5 1.6.7s1.1.3 1.6.4c.6.1 1.2.1 1.8 0 .7 0 1.3-.2 1.9-.5.7-.3 1.4-.7 2-1.1.3-.2.5-.4.7-.6.1-.1.2-.2.3-.4 0 0 0-.1.1-.1l0 0 0 0c.3-.1.4-.4.3-.7-.1-.3-.5-.6-.8-.4-.1 0-.1.1-.2.1-.5 0-1 .2-1.5.5-.3.2-.6.3-.9.5-.2.1-.4.2-.7.3-.5.2-1 .3-1.5.4-.4 0-.8 0-1.3 0-.2 0-.4-.1-.6-.1-.3-.1-.6-.2-.8-.3-.9-.4-1.8-.9-2.7-1.5-1.1-.7-2.5-1.2-3.8-1.4-.2 0-.4 0-.7 0C6.7 14.8 5.9 14.9 5.2 15.2L5.2 15.2 5.2 15.2zM18.8 17.6C18.7 17.7 18.7 17.7 18.8 17.6 18.7 17.7 18.7 17.7 18.8 17.6L18.8 17.6 18.8 17.6zM32.5 21.5l.1.1C32.6 21.6 32.6 21.6 32.5 21.5L32.5 21.5 32.5 21.5zM33.6 23.6c0 .1 0 .2 0 .3C33.6 23.8 33.6 23.7 33.6 23.6L33.6 23.6 33.6 23.6zM2 26.4c0 .1 0 .2 0 .2S2 26.5 2 26.4L2 26.4 2 26.4zM33.5 26.5C33.5 26.5 33.5 26.6 33.5 26.5 33.5 26.6 33.5 26.5 33.5 26.5L33.5 26.5 33.5 26.5zM33 28.4c0 0 0 .1-.1.1C33 28.5 33 28.5 33 28.4L33 28.4 33 28.4zM32.9 28.6L32.9 28.6 32.9 28.6 32.9 28.6 32.9 28.6zM17.9 43.8C17.9 43.9 18 43.9 17.9 43.8c.1 0 .1 0 .2 0C18 43.9 18 43.9 17.9 43.8c.1.1.1.1.2.1C18 43.9 18 43.9 17.9 43.8 18 43.9 18 43.9 17.9 43.8 18 43.9 18 43.9 17.9 43.8 18 43.9 17.9 43.9 17.9 43.8L17.9 43.8 17.9 43.8zM17.5 43.9c-.1 0-.1 0-.2 0C17.4 43.9 17.5 43.9 17.5 43.9L17.5 43.9 17.5 43.9zM17.1 44c-.1 0-.2.1-.2.1C17 44.1 17 44 17.1 44L17.1 44 17.1 44zM16.5 44.4L16.5 44.4 16.5 44.4 16.5 44.4 16.5 44.4zM15.8 45.1C15.8 45.1 15.8 45.2 15.8 45.1 15.8 45.2 15.8 45.1 15.8 45.1L15.8 45.1 15.8 45.1zM7.8 54.3C7.8 54.3 7.8 54.4 7.8 54.3 7.8 54.4 7.8 54.3 7.8 54.3L7.8 54.3 7.8 54.3zM10.1 54.4L10 54.5C10 54.5 10 54.5 10.1 54.4L10.1 54.4 10.1 54.4zM9.5 55.1l-.1.1C9.4 55.1 9.5 55.1 9.5 55.1L9.5 55.1 9.5 55.1zM9.2 55.3c-.1 0-.1 0-.2.1C9.1 55.4 9.1 55.4 9.2 55.3L9.2 55.3 9.2 55.3zM26.5 56.2c-.1 0-.1.1-.2.1C26.4 56.3 26.5 56.3 26.5 56.2L26.5 56.2 26.5 56.2zM26 56.6C26 56.6 25.9 56.6 26 56.6 25.9 56.6 25.9 56.6 26 56.6 25.9 56.6 26 56.6 26 56.6L26 56.6 26 56.6zM25.9 56.6C25.9 56.6 25.8 56.6 25.9 56.6 25.8 56.7 25.8 56.7 25.9 56.6 25.8 56.6 25.8 56.6 25.9 56.6L25.9 56.6 25.9 56.6 25.9 56.6zM25.8 56.7L25.8 56.7 25.8 56.7 25.8 56.7 25.8 56.7 25.8 56.7zM18 43.9L18 43.9 18 43.9 18 43.9 18 43.9 18 43.9 18 43.9zM4.2 41.3L4.2 41.3C4.2 41.2 4.2 41.2 4.2 41.3L4.2 41.3 4.2 41.3 4.2 41.3zM3.2 37.6L3.2 37.6 3.2 37.6C3.1 37.5 3.1 37.6 3.2 37.6L3.2 37.6 3.2 37.6zM32 37.4C32 37.4 32 37.5 32 37.4 32 37.5 32 37.4 32 37.4L32 37.4 32 37.4 32 37.4zM33.2 33.1L33.2 33.1 33.2 33.1 33.2 33.1 33.2 33.1 33.2 33.1z"></path><path d="M24.2 14.6c-.6.1-1.2.4-1.7.7-.3.2-.5.4-.7.7-.1.2-.2.3-.3.5l-.1.1c-.3.2-.2.7 0 .9.3.3.6.2.9 0l0 0c.2 0 .3 0 .5-.1.3-.1.5-.2.8-.3.4-.2.9-.3 1.3-.4.4 0 .7 0 1.1 0 .2 0 .5.1.7.2.2 0 .4 0 .6 0 .3-.1.5-.3.7-.5.3-.5.1-1.2-.4-1.5-.3-.2-.6-.3-1-.4-.3-.1-.6-.1-.9-.1-.1 0-.1 0-.2 0C25.1 14.4 24.6 14.5 24.2 14.6L24.2 14.6 24.2 14.6zM23.4 17.2L23.4 17.2 23.4 17.2 23.4 17.2 23.4 17.2zM61.3 44c-.2.1-.4.4-.5.6-.1.3 0 .5.1.8 0 .1.1.2.1.3.1.4.3.7.4 1.1.1.4.2.8.3 1.2 0 .4.1.7.1 1.1 0 .4 0 .8-.1 1.2s-.1.8-.2 1.2c-.1.4-.3.9-.4 1.3-.3.7-.7 1.4-1.2 2 .1-.1.1-.1.2-.2-.1.1-.1.2-.2.3-.3.4-.6.7-.9 1-.3.3-.6.6-1 .8-.3.2-.7.5-1 .7-.4.2-.7.4-1.1.6-.5.2-.9.4-1.4.7-.2.1-.4.2-.6.3-.2.1-.4.3-.5.4-.1 0-.2.1-.3.1-.3.2-.4.6-.2.9.2.3.6.4.9.2l.1-.1c.4 0 .7-.1 1.1-.1.4-.1.9-.3 1.3-.4.9-.3 1.7-.8 2.4-1.3 1.6-1 3-2.4 4-4.1.4-.7.8-1.5 1-2.3.2-.5.2-1.1.3-1.6 0-.4.1-.7.1-1.1 0-.8 0-1.7-.2-2.5-.2-1-.5-1.9-1-2.8-.2-.3-.5-.5-.9-.5C61.7 43.9 61.5 43.9 61.3 44L61.3 44 61.3 44zM61.8 48c0 .1 0 .1 0 .2C61.8 48.2 61.8 48.1 61.8 48L61.8 48 61.8 48zM61.8 50.2L61.8 50.2 61.8 50.2 61.8 50.2 61.8 50.2zM61.8 50.4L61.8 50.4 61.8 50.4 61.8 50.4 61.8 50.4zM61.2 52.5c0 .1-.1.1-.1.2C61.2 52.7 61.2 52.6 61.2 52.5L61.2 52.5 61.2 52.5zM59.9 54.8c-.1.1-.1.1-.2.2C59.8 54.9 59.8 54.9 59.9 54.8L59.9 54.8 59.9 54.8zM15.4 22.2c-.1.1-.1.2-.1.3-.2.2-.3.4-.5.7-.2.3-.3.6-.4.8-.2.4-.4.7-.5 1.1-.1.3-.2.5-.2.9 0 .3.2.7.4.9.2.2.5.4.8.5.2.1.4.2.6.3.4.2.8.4 1.2.6.6.3 1.2.7 1.8 1.1-.1-.1-.1-.1-.2-.2.5.4 1 .7 1.4 1.2-.1.5-.3 1-.4 1.4-.3.8-.7 1.5-1.1 2.2-.5.8-1 1.6-1.6 2.4-.3.4-.1 1.1.4 1.4.4.3 1.1.1 1.4-.4.7-1.4 1.4-2.9 2.2-4.3.3-.6.7-1.2 1.1-1.8.3-.4.5-.8.5-1.3 0-.4-.2-.8-.5-1.1-.5-.5-1.1-.9-1.7-1.3-.5-.4-1.1-.7-1.6-1-.7-.3-1.4-.6-2-1 .1-.5.2-1 .3-1.4 0-.2.1-.5.1-.7s.1-.5.1-.7v-.1c.2-.3 0-.7-.2-.9-.1-.1-.2-.1-.3-.1C15.8 21.9 15.5 22 15.4 22.2L15.4 22.2 15.4 22.2zM16.5 22.9L16.5 22.9 16.5 22.9 16.5 22.9 16.5 22.9zM15.9 25.7L15.9 25.7C15.9 25.8 15.9 25.8 15.9 25.7L15.9 25.7 15.9 25.7 15.9 25.7zM15.9 26C15.9 26 15.9 26.1 15.9 26 15.9 26.1 15.9 26 15.9 26L15.9 26 15.9 26z"></path></svg>